<svg version="1.1" xmlns="http://www.w3.org/2000/svg" xmlns:xlink="http://www.w3.org/1999/xlink"
     viewBox="0 0 200 200" width="200" height="200" xml:space="preserve">

  <!-- Logo mark only — no background, transparent -->
  <g transform="translate(0, 10) scale(0.17578125)">

    <!-- Spiral / eye — navy blue -->
    <path fill="#1b2a6b" stroke="#1b2a6b" stroke-width="12" stroke-linejoin="round"
      d="
M410.845520,453.826721
  C432.617554,432.923096 456.889526,416.644135 486.403259,410.390961
  C523.600220,402.509949 557.596741,409.460236 584.567200,437.801880
  C608.132568,462.565277 614.478088,492.433289 603.825989,524.779175
  C593.377869,556.505432 570.568481,575.653931 537.913513,582.267578
  C498.869843,590.175171 461.542969,571.912781 445.570770,537.412964
  C436.125763,517.011902 435.645660,495.994598 442.953217,474.763672
  C443.578979,472.945618 444.856445,471.240417 444.287201,469.092224
  C442.265961,468.295654 441.074646,469.788300 439.844391,470.696777
  C425.027649,481.638519 411.321533,493.710907 400.829346,509.071533
  C399.289001,511.326538 398.382996,513.040588 400.412262,515.664734
  C425.650299,548.301758 455.501984,575.457947 495.137421,588.878418
  C536.985291,603.048035 576.672607,598.002258 610.375305,567.618103
  C632.935425,547.279419 644.746582,520.824951 648.821045,490.639221
  C658.243958,420.829712 608.339844,363.014465 548.360352,349.949829
  C501.783081,339.804474 458.574615,349.820190 419.690155,376.678802
  C379.148712,404.682068 355.648468,444.039856 347.276794,492.423523
  C338.472992,543.304810 349.638947,589.494568 382.377380,629.482788
  C410.811920,664.213989 447.804810,685.625305 492.442780,691.558167
  C561.129333,700.687317 619.149109,678.080322 667.670227,629.486389
  C670.664734,626.487366 673.487671,623.317017 676.693726,619.903442
  C677.116699,621.058655 677.414185,621.490784 677.412598,621.921936
  C677.361389,635.920959 677.226562,649.919983 677.246521,663.918823
  C677.251221,667.184692 676.086853,669.452087 673.614319,671.643250
  C641.604309,700.010559 604.782349,718.964478 562.760803,726.901550
  C510.365234,736.798096 460.494904,729.308594 413.802338,702.888489
  C377.002655,682.066040 348.405151,653.202881 329.092102,615.545166
  C317.225433,592.406982 309.884949,567.798584 307.589996,541.768066
  C302.782257,487.236328 315.449860,437.218079 347.440277,392.736328
  C379.782257,347.765717 423.546448,320.046722 478.087494,309.538574
  C516.624817,302.113770 554.129944,305.362091 589.677673,322.172760
  C639.216003,345.599640 670.369446,384.594788 682.072266,438.107697
  C690.109680,474.859894 687.609924,511.419006 669.505554,544.890930
  C644.820923,590.528687 607.063354,619.238281 554.395813,625.363342
  C510.415680,630.478088 471.262573,617.266296 435.582916,592.204895
  C407.241119,572.297729 384.614349,546.940063 365.411591,518.327759
  C363.824951,515.963623 363.552032,514.055176 365.133636,511.520874
  C378.145660,490.670471 392.693512,471.051727 410.845520,453.826721
z"/>

    <!-- Green tick -->
    <polyline points="484,490 512,518 566,464"
      fill="none" stroke="#2e8b3a" stroke-width="34"
      stroke-linecap="square" stroke-linejoin="miter" stroke-miterlimit="10"/>
  </g>

</svg>